# xmcd
#
# Track frame offsets:
#	150
#	16303
#	32911
#	54149
#	69131
#	86321
#	100178
#	115775
#	130161
#	146839
#	158653
#	174520
#	196246
#	211048
#
# Disc length: 3011 seconds
#
# Revision: 1
# Processed by: cddbd v1.5.2PL0 Copyright (c) Steve Scherf et al.
# Submitted via: audiograbber 1.83.01
#
DISCID=aa0bc10e
DTITLE=Big Bill Broonzy - Big Bill Blues
DYEAR=1956
DGENRE=Blues
TTITLE0=Big Bill Blues
TTITLE1=Hey Hey Baby
TTITLE2=Feelin' Low Down
TTITLE3=House Rent Stomp
TTITLE4=Make My Gateway
TTITLE5=John Henry (Alternative take)
TTITLE6=Feelin' Low Down (Alternative take)
TTITLE7=Black Brown and White
TTITLE8=Blues In 1890
TTITLE9=Willie Mae Blues
TTITLE10=Guitar Shuffle
TTITLE11=In The Evening
TTITLE12=What I Used To Do
TTITLE13=Lonesome Road Blues
EXTD=
EXTT0=
EXTT1=
EXTT2=
EXTT3=
EXTT4=
EXTT5=
EXTT6=
EXTT7=
EXTT8=
EXTT9=
EXTT10=
EXTT11=
EXTT12=
EXTT13=
PLAYORDER=
